<svg width="1092" height="1092" viewBox="0 0 1092 1092" fill="none" xmlns="http://www.w3.org/2000/svg">
<circle cx="546" cy="546" r="546" fill="#272727"/>
<path d="M718.839 409.5C718.839 455.34 700.629 499.302 668.216 531.716C635.802 564.129 591.84 582.339 546 582.339C500.16 582.339 456.198 564.129 423.784 531.716C391.371 499.302 373.161 455.34 373.161 409.5C373.161 363.66 391.371 319.698 423.784 287.285C456.198 254.871 500.16 236.661 546 236.661C591.84 236.661 635.802 254.871 668.216 287.285C700.629 319.698 718.839 363.66 718.839 409.5ZM616.825 480.325C635.608 461.541 646.161 436.065 646.161 409.5C646.161 382.936 635.608 357.46 616.825 338.676C598.041 319.892 572.564 309.339 546 309.339C519.436 309.339 493.959 319.892 475.175 338.676C456.392 357.46 445.839 382.936 445.839 409.5C445.839 436.065 456.392 461.541 475.175 480.325C493.959 499.109 519.436 509.661 546 509.661C572.564 509.661 598.041 499.109 616.825 480.325Z" fill="#FF8A00" stroke="#272727" stroke-width="18.3221"/>
<path d="M127.339 545.999V546C127.339 643.214 160.511 732.728 216.098 803.804L223.411 813.155L230.603 803.711C267.932 754.689 316.09 714.961 371.314 687.631C426.538 660.3 487.333 646.107 548.95 646.161H548.958H548.966C609.785 646.103 669.815 659.929 724.482 686.584C779.149 713.239 827.011 752.021 864.421 799.974L871.727 809.339L878.929 799.893C919.234 747.031 946.372 685.33 958.097 619.896C969.822 554.463 965.798 487.178 946.356 423.609C926.915 360.04 892.615 302.014 846.296 254.333C799.976 206.652 742.969 170.686 679.989 149.411C617.01 128.136 549.87 122.163 484.125 131.988C418.379 141.813 355.918 167.152 301.91 205.909C247.902 244.666 203.899 295.726 173.542 354.866C143.185 414.005 127.347 479.523 127.339 545.999ZM280.414 858.708L275.54 865.685L282.14 871.058C356.678 931.737 449.889 964.802 546.001 964.661C643.813 964.795 738.559 930.544 813.675 867.895L820.211 862.444L815.255 855.525C784.939 813.202 744.963 778.722 698.647 754.949C652.332 731.178 601.015 718.798 548.957 718.839C496.241 718.802 444.296 731.5 397.542 755.851C350.785 780.203 310.603 815.49 280.414 858.708ZM54.6611 546C54.6611 274.647 274.647 54.6608 546 54.6608C817.353 54.6608 1037.34 274.647 1037.34 546C1037.34 817.353 817.353 1037.34 546 1037.34C274.647 1037.34 54.6611 817.353 54.6611 546Z" fill="#FF8A00" stroke="#272727" stroke-width="18.3221"/>
</svg>
